Output #0, mpeg, to '03.mpg':
    Stream #0:0: Video: mpeg1video, yuv420p, 640x480, q=2-31, 400 kb/s, 25 tbn
[mpeg @ 0xaaaae0990b50] VBV buffer size not set, using default size of 230KB
If you want the mpeg file to be compliant to some specification
Like DVD, VCD or others, make sure you set the correct buffer size
视频编码
pts:0 pts_time:0 dts:-3600 dts_time:-0.04 duration:0 duration_time:0 stream_index:0
[mpeg @ 0xaaaae0990b50] buffer underflow st=0 bufi=10808 size=30716
[mpeg @ 0xaaaae0990b50] buffer underflow st=0 bufi=12849 size=30716
[mpeg @ 0xaaaae0990b50] buffer underflow st=0 bufi=14890 size=30716
[mpeg @ 0xaaaae0990b50] buffer underflow st=0 bufi=16931 size=30716
[mpeg @ 0xaaaae0990b50] buffer underflow st=0 bufi=18972 size=30716
[mpeg @ 0xaaaae0990b50] buffer underflow st=0 bufi=21013 size=30716
[mpeg @ 0xaaaae0990b50] buffer underflow st=0 bufi=23054 size=30716
[mpeg @ 0xaaaae0990b50] buffer underflow st=0 bufi=25095 size=30716
[mpeg @ 0xaaaae0990b50] buffer underflow st=0 bufi=27136 size=30716
[mpeg @ 0xaaaae0990b50] buffer underflow st=0 bufi=29177 size=30716
pts:3600 pts_time:0.04 dts:0 dts_time:0 duration:0 duration_time:0 stream_index:0
[mpeg @ 0xaaaae0990b50] buffer underflow st=0 bufi=493 size=13758
[mpeg @ 0xaaaae0990b50] buffer underflow st=0 bufi=2534 size=13758
[mpeg @ 0xaaaae0990b50] buffer underflow st=0 bufi=4575 size=13758
[mpeg @ 0xaaaae0990b50] buffer underflow st=0 bufi=6616 size=13758
[mpeg @ 0xaaaae0990b50] buffer underflow st=0 bufi=8657 size=13758
[mpeg @ 0xaaaae0990b50] buffer underflow st=0 bufi=10698 size=13758
[mpeg @ 0xaaaae0990b50] buffer underflow st=0 bufi=12739 size=13758
pts:7200 pts_time:0.08 dts:3600 dts_time:0.04 duration:0 duration_time:0 stream_index:0
[mpeg @ 0xaaaae0990b50] buffer underflow st=0 bufi=1013 size=22574
[mpeg @ 0xaaaae0990b50] buffer underflow st=0 bufi=3054 size=22574
[mpeg @ 0xaaaae0990b50] buffer underflow st=0 bufi=5095 size=22574
[mpeg @ 0xaaaae0990b50] buffer underflow st=0 bufi=7136 size=22574
[mpeg @ 0xaaaae0990b50] buffer underflow st=0 bufi=9177 size=22574
[mpeg @ 0xaaaae0990b50] buffer underflow st=0 bufi=11218 size=22574
[mpeg @ 0xaaaae0990b50] buffer underflow st=0 bufi=13259 size=22574
[mpeg @ 0xaaaae0990b50] buffer underflow st=0 bufi=15300 size=22574
[mpeg @ 0xaaaae0990b50] buffer underflow st=0 bufi=17341 size=22574
[mpeg @ 0xaaaae0990b50] buffer underflow st=0 bufi=19382 size=22574
[mpeg @ 0xaaaae0990b50] buffer underflow st=0 bufi=21423 size=22574
pts:10800 pts_time:0.12 dts:7200 dts_time:0.08 duration:0 duration_time:0 stream_index:0
pts:14400 pts_time:0.16 dts:10800 dts_time:0.12 duration:0 duration_time:0 stream_index:0
[mpeg @ 0xaaaae0990b50] buffer underflow st=0 bufi=164 size=622
pts:18000 pts_time:0.2 dts:14400 dts_time:0.16 duration:0 duration_time:0 stream_index:0
pts:21600 pts_time:0.24 dts:18000 dts_time:0.2 duration:0 duration_time:0 stream_index:0
[mpeg @ 0xaaaae0990b50] buffer underflow st=0 bufi=333 size=567
pts:25200 pts_time:0.28 dts:21600 dts_time:0.24 duration:0 duration_time:0 stream_index:0
pts:28800 pts_time:0.32 dts:25200 dts_time:0.28 duration:0 duration_time:0 stream_index:0
[mpeg @ 0xaaaae0990b50] buffer underflow st=0 bufi=31 size=1567
pts:32400 pts_time:0.36 dts:28800 dts_time:0.32 duration:0 duration_time:0 stream_index:0
[mpeg @ 0xaaaae0990b50] buffer underflow st=0 bufi=496 size=999
pts:36000 pts_time:0.4 dts:32400 dts_time:0.36 duration:0 duration_time:0 stream_index:0
[mpeg @ 0xaaaae0990b50] buffer underflow st=0 bufi=1529 size=1956
pts:39600 pts_time:0.44 dts:36000 dts_time:0.4 duration:0 duration_time:0 stream_index:0
[mpeg @ 0xaaaae0990b50] buffer underflow st=0 bufi=1605 size=18857
[mpeg @ 0xaaaae0990b50] buffer underflow st=0 bufi=3646 size=18857
[mpeg @ 0xaaaae0990b50] buffer underflow st=0 bufi=5687 size=18857
[mpeg @ 0xaaaae0990b50] buffer underflow st=0 bufi=7728 size=18857
[mpeg @ 0xaaaae0990b50] buffer underflow st=0 bufi=9769 size=18857
[mpeg @ 0xaaaae0990b50] buffer underflow st=0 bufi=11798 size=18857
[mpeg @ 0xaaaae0990b50] buffer underflow st=0 bufi=13839 size=18857
[mpeg @ 0xaaaae0990b50] buffer underflow st=0 bufi=15880 size=18857
[mpeg @ 0xaaaae0990b50] buffer underflow st=0 bufi=17921 size=18857
pts:43200 pts_time:0.48 dts:39600 dts_time:0.44 duration:0 duration_time:0 stream_index:0
[mpeg @ 0xaaaae0990b50] buffer underflow st=0 bufi=1096 size=6731
[mpeg @ 0xaaaae0990b50] buffer underflow st=0 bufi=3137 size=6731
[mpeg @ 0xaaaae0990b50] buffer underflow st=0 bufi=5178 size=6731
pts:46800 pts_time:0.52 dts:43200 dts_time:0.48 duration:0 duration_time:0 stream_index:0
[mpeg @ 0xaaaae0990b50] buffer underflow st=0 bufi=479 size=907
pts:50400 pts_time:0.56 dts:46800 dts_time:0.52 duration:0 duration_time:0 stream_index:0
[mpeg @ 0xaaaae0990b50] buffer underflow st=0 bufi=1604 size=1808
pts:54000 pts_time:0.6 dts:50400 dts_time:0.56 duration:0 duration_time:0 stream_index:0
pts:57600 pts_time:0.64 dts:54000 dts_time:0.6 duration:0 duration_time:0 stream_index:0
[mpeg @ 0xaaaae0990b50] buffer underflow st=0 bufi=42 size=1864
pts:61200 pts_time:0.68 dts:57600 dts_time:0.64 duration:0 duration_time:0 stream_index:0
[mpeg @ 0xaaaae0990b50] buffer underflow st=0 bufi=210 size=1665
pts:64800 pts_time:0.72 dts:61200 dts_time:0.68 duration:0 duration_time:0 stream_index:0
[mpeg @ 0xaaaae0990b50] buffer underflow st=0 bufi=577 size=1394
pts:68400 pts_time:0.76 dts:64800 dts_time:0.72 duration:0 duration_time:0 stream_index:0
[mpeg @ 0xaaaae0990b50] buffer underflow st=0 bufi=1215 size=8180
[mpeg @ 0xaaaae0990b50] buffer underflow st=0 bufi=3256 size=8180
[mpeg @ 0xaaaae0990b50] buffer underflow st=0 bufi=5297 size=8180
[mpeg @ 0xaaaae0990b50] buffer underflow st=0 bufi=7338 size=8180
pts:72000 pts_time:0.8 dts:68400 dts_time:0.76 duration:0 duration_time:0 stream_index:0
[mpeg @ 0xaaaae0990b50] buffer underflow st=0 bufi=1190 size=1423
pts:75600 pts_time:0.84 dts:72000 dts_time:0.8 duration:0 duration_time:0 stream_index:0
pts:79200 pts_time:0.88 dts:75600 dts_time:0.84 duration:0 duration_time:0 stream_index:0
[mpeg @ 0xaaaae0990b50] buffer underflow st=0 bufi=122 size=6296
[mpeg @ 0xaaaae0990b50] buffer underflow st=0 bufi=2163 size=6296
[mpeg @ 0xaaaae0990b50] buffer underflow st=0 bufi=4204 size=6296
[mpeg @ 0xaaaae0990b50] buffer underflow st=0 bufi=6245 size=6296
pts:82800 pts_time:0.92 dts:79200 dts_time:0.88 duration:0 duration_time:0 stream_index:0
[mpeg @ 0xaaaae0990b50] buffer underflow st=0 bufi=1981 size=13500
[mpeg @ 0xaaaae0990b50] buffer underflow st=0 bufi=4022 size=13500
[mpeg @ 0xaaaae0990b50] buffer underflow st=0 bufi=6063 size=13500
[mpeg @ 0xaaaae0990b50] buffer underflow st=0 bufi=8104 size=13500
[mpeg @ 0xaaaae0990b50] buffer underflow st=0 bufi=10145 size=13500
[mpeg @ 0xaaaae0990b50] buffer underflow st=0 bufi=12186 size=13500
pts:86400 pts_time:0.96 dts:82800 dts_time:0.92 duration:0 duration_time:0 stream_index:0
[mpeg @ 0xaaaae0990b50] buffer underflow st=0 bufi=718 size=770
pts:90000 pts_time:1 dts:86400 dts_time:0.96 duration:0 duration_time:0 stream_index:0
[mpeg @ 0xaaaae0990b50] buffer underflow st=0 bufi=1980 size=2808
pts:93600 pts_time:1.04 dts:90000 dts_time:1 duration:0 duration_time:0 stream_index:0
pts:97200 pts_time:1.08 dts:93600 dts_time:1.04 duration:0 duration_time:0 stream_index:0
[mpeg @ 0xaaaae0990b50] buffer underflow st=0 bufi=40 size=5068
[mpeg @ 0xaaaae0990b50] buffer underflow st=0 bufi=2081 size=5068
[mpeg @ 0xaaaae0990b50] buffer underflow st=0 bufi=4122 size=5068
pts:100800 pts_time:1.12 dts:97200 dts_time:1.08 duration:0 duration_time:0 stream_index:0
pts:104400 pts_time:1.16 dts:100800 dts_time:1.12 duration:0 duration_time:0 stream_index:0
[mpeg @ 0xaaaae0990b50] buffer underflow st=0 bufi=465 size=2009
pts:108000 pts_time:1.2 dts:104400 dts_time:1.16 duration:0 duration_time:0 stream_index:0
[mpeg @ 0xaaaae0990b50] buffer underflow st=0 bufi=488 size=2328
pts:111600 pts_time:1.24 dts:108000 dts_time:1.2 duration:0 duration_time:0 stream_index:0
[mpeg @ 0xaaaae0990b50] buffer underflow st=0 bufi=192 size=1126
pts:115200 pts_time:1.28 dts:111600 dts_time:1.24 duration:0 duration_time:0 stream_index:0
[mpeg @ 0xaaaae0990b50] buffer underflow st=0 bufi=1098 size=2731
pts:118800 pts_time:1.32 dts:115200 dts_time:1.28 duration:0 duration_time:0 stream_index:0
[mpeg @ 0xaaaae0990b50] buffer underflow st=0 bufi=399 size=567
pts:122400 pts_time:1.36 dts:118800 dts_time:1.32 duration:0 duration_time:0 stream_index:0
pts:126000 pts_time:1.4 dts:122400 dts_time:1.36 duration:0 duration_time:0 stream_index:0
[mpeg @ 0xaaaae0990b50] buffer underflow st=0 bufi=29 size=22601
[mpeg @ 0xaaaae0990b50] buffer underflow st=0 bufi=2070 size=22601
[mpeg @ 0xaaaae0990b50] buffer underflow st=0 bufi=4111 size=22601
[mpeg @ 0xaaaae0990b50] buffer underflow st=0 bufi=6152 size=22601
[mpeg @ 0xaaaae0990b50] buffer underflow st=0 bufi=8193 size=22601
[mpeg @ 0xaaaae0990b50] buffer underflow st=0 bufi=10234 size=22601
[mpeg @ 0xaaaae0990b50] buffer underflow st=0 bufi=12275 size=22601
[mpeg @ 0xaaaae0990b50] buffer underflow st=0 bufi=14316 size=22601
[mpeg @ 0xaaaae0990b50] buffer underflow st=0 bufi=16357 size=22601
[mpeg @ 0xaaaae0990b50] buffer underflow st=0 bufi=18398 size=22601
[mpeg @ 0xaaaae0990b50] buffer underflow st=0 bufi=20439 size=22601
[mpeg @ 0xaaaae0990b50] buffer underflow st=0 bufi=22480 size=22601
pts:129600 pts_time:1.44 dts:126000 dts_time:1.4 duration:0 duration_time:0 stream_index:0
pts:133200 pts_time:1.48 dts:129600 dts_time:1.44 duration:0 duration_time:0 stream_index:0
[mpeg @ 0xaaaae0990b50] buffer underflow st=0 bufi=1795 size=2949
pts:136800 pts_time:1.52 dts:133200 dts_time:1.48 duration:0 duration_time:0 stream_index:0
pts:140400 pts_time:1.56 dts:136800 dts_time:1.52 duration:0 duration_time:0 stream_index:0
pts:144000 pts_time:1.6 dts:140400 dts_time:1.56 duration:0 duration_time:0 stream_index:0
[mpeg @ 0xaaaae0990b50] buffer underflow st=0 bufi=478 size=6295
[mpeg @ 0xaaaae0990b50] buffer underflow st=0 bufi=2519 size=6295
[mpeg @ 0xaaaae0990b50] buffer underflow st=0 bufi=4548 size=6295
pts:147600 pts_time:1.64 dts:144000 dts_time:1.6 duration:0 duration_time:0 stream_index:0
pts:151200 pts_time:1.68 dts:147600 dts_time:1.64 duration:0 duration_time:0 stream_index:0
pts:154800 pts_time:1.72 dts:151200 dts_time:1.68 duration:0 duration_time:0 stream_index:0
[mpeg @ 0xaaaae0990b50] buffer underflow st=0 bufi=85 size=1502
pts:158400 pts_time:1.76 dts:154800 dts_time:1.72 duration:0 duration_time:0 stream_index:0
[mpeg @ 0xaaaae0990b50] buffer underflow st=0 bufi=615 size=2486
pts:162000 pts_time:1.8 dts:158400 dts_time:1.76 duration:0 duration_time:0 stream_index:0
[mpeg @ 0xaaaae0990b50] buffer underflow st=0 bufi=161 size=1478
pts:165600 pts_time:1.84 dts:162000 dts_time:1.8 duration:0 duration_time:0 stream_index:0
[mpeg @ 0xaaaae0990b50] buffer underflow st=0 bufi=715 size=4615
[mpeg @ 0xaaaae0990b50] buffer underflow st=0 bufi=2756 size=4615
pts:169200 pts_time:1.88 dts:165600 dts_time:1.84 duration:0 duration_time:0 stream_index:0
[mpeg @ 0xaaaae0990b50] buffer underflow st=0 bufi=173 size=16711
[mpeg @ 0xaaaae0990b50] buffer underflow st=0 bufi=2214 size=16711
[mpeg @ 0xaaaae0990b50] buffer underflow st=0 bufi=4255 size=16711
[mpeg @ 0xaaaae0990b50] buffer underflow st=0 bufi=6296 size=16711
[mpeg @ 0xaaaae0990b50] buffer underflow st=0 bufi=8337 size=16711
[mpeg @ 0xaaaae0990b50] buffer underflow st=0 bufi=10378 size=16711
[mpeg @ 0xaaaae0990b50] buffer underflow st=0 bufi=12419 size=16711
[mpeg @ 0xaaaae0990b50] buffer underflow st=0 bufi=14460 size=16711
[mpeg @ 0xaaaae0990b50] buffer underflow st=0 bufi=16501 size=16711
pts:172800 pts_time:1.92 dts:169200 dts_time:1.88 duration:0 duration_time:0 stream_index:0
pts:176400 pts_time:1.96 dts:172800 dts_time:1.92 duration:0 duration_time:0 stream_index:0
[mpeg @ 0xaaaae0990b50] buffer underflow st=0 bufi=1172 size=1898
pts:180000 pts_time:2 dts:176400 dts_time:1.96 duration:0 duration_time:0 stream_index:0
pts:183600 pts_time:2.04 dts:180000 dts_time:2 duration:0 duration_time:0 stream_index:0
[mpeg @ 0xaaaae0990b50] buffer underflow st=0 bufi=274 size=2682
[mpeg @ 0xaaaae0990b50] buffer underflow st=0 bufi=2315 size=2682
pts:187200 pts_time:2.08 dts:183600 dts_time:2.04 duration:0 duration_time:0 stream_index:0
pts:190800 pts_time:2.12 dts:187200 dts_time:2.08 duration:0 duration_time:0 stream_index:0
[mpeg @ 0xaaaae0990b50] buffer underflow st=0 bufi=1301 size=1798
pts:194400 pts_time:2.16 dts:190800 dts_time:2.12 duration:0 duration_time:0 stream_index:0
pts:198000 pts_time:2.2 dts:194400 dts_time:2.16 duration:0 duration_time:0 stream_index:0
[mpeg @ 0xaaaae0990b50] buffer underflow st=0 bufi=555 size=1131
pts:201600 pts_time:2.24 dts:198000 dts_time:2.2 duration:0 duration_time:0 stream_index:0
[mpeg @ 0xaaaae0990b50] buffer underflow st=0 bufi=1456 size=4532
[mpeg @ 0xaaaae0990b50] buffer underflow st=0 bufi=3497 size=4532
pts:205200 pts_time:2.28 dts:201600 dts_time:2.24 duration:0 duration_time:0 stream_index:0
pts:208800 pts_time:2.32 dts:205200 dts_time:2.28 duration:0 duration_time:0 stream_index:0
[mpeg @ 0xaaaae0990b50] buffer underflow st=0 bufi=466 size=1663
pts:212400 pts_time:2.36 dts:208800 dts_time:2.32 duration:0 duration_time:0 stream_index:0
[mpeg @ 0xaaaae0990b50] buffer underflow st=0 bufi=835 size=20583
[mpeg @ 0xaaaae0990b50] buffer underflow st=0 bufi=2876 size=20583
[mpeg @ 0xaaaae0990b50] buffer underflow st=0 bufi=4917 size=20583
[mpeg @ 0xaaaae0990b50] buffer underflow st=0 bufi=6958 size=20583
[mpeg @ 0xaaaae0990b50] buffer underflow st=0 bufi=8999 size=20583
[mpeg @ 0xaaaae0990b50] buffer underflow st=0 bufi=11040 size=20583
[mpeg @ 0xaaaae0990b50] buffer underflow st=0 bufi=13081 size=20583
[mpeg @ 0xaaaae0990b50] buffer underflow st=0 bufi=15122 size=20583
[mpeg @ 0xaaaae0990b50] buffer underflow st=0 bufi=17163 size=20583
[mpeg @ 0xaaaae0990b50] buffer underflow st=0 bufi=19204 size=20583
pts:216000 pts_time:2.4 dts:212400 dts_time:2.36 duration:0 duration_time:0 stream_index:0
[mpeg @ 0xaaaae0990b50] buffer underflow st=0 bufi=653 size=711
pts:219600 pts_time:2.44 dts:216000 dts_time:2.4 duration:0 duration_time:0 stream_index:0
[mpeg @ 0xaaaae0990b50] buffer underflow st=0 bufi=1974 size=2486
pts:223200 pts_time:2.48 dts:219600 dts_time:2.44 duration:0 duration_time:0 stream_index:0
pts:226800 pts_time:2.52 dts:223200 dts_time:2.48 duration:0 duration_time:0 stream_index:0
pts:230400 pts_time:2.56 dts:226800 dts_time:2.52 duration:0 duration_time:0 stream_index:0
[mpeg @ 0xaaaae0990b50] buffer underflow st=0 bufi=556 size=2270
pts:234000 pts_time:2.6 dts:230400 dts_time:2.56 duration:0 duration_time:0 stream_index:0
[mpeg @ 0xaaaae0990b50] buffer underflow st=0 bufi=318 size=1095
pts:237600 pts_time:2.64 dts:234000 dts_time:2.6 duration:0 duration_time:0 stream_index:0
pts:241200 pts_time:2.68 dts:237600 dts_time:2.64 duration:0 duration_time:0 stream_index:0
[mpeg @ 0xaaaae0990b50] buffer underflow st=0 bufi=400 size=603
pts:244800 pts_time:2.72 dts:241200 dts_time:2.68 duration:0 duration_time:0 stream_index:0
[mpeg @ 0xaaaae0990b50] buffer underflow st=0 bufi=1829 size=4366
[mpeg @ 0xaaaae0990b50] buffer underflow st=0 bufi=3870 size=4366
pts:248400 pts_time:2.76 dts:244800 dts_time:2.72 duration:0 duration_time:0 stream_index:0
pts:252000 pts_time:2.8 dts:248400 dts_time:2.76 duration:0 duration_time:0 stream_index:0
pts:255600 pts_time:2.84 dts:252000 dts_time:2.8 duration:0 duration_time:0 stream_index:0
[mpeg @ 0xaaaae0990b50] buffer underflow st=0 bufi=1314 size=25576
[mpeg @ 0xaaaae0990b50] buffer underflow st=0 bufi=3355 size=25576
[mpeg @ 0xaaaae0990b50] buffer underflow st=0 bufi=5396 size=25576
[mpeg @ 0xaaaae0990b50] buffer underflow st=0 bufi=7437 size=25576
[mpeg @ 0xaaaae0990b50] buffer underflow st=0 bufi=9478 size=25576
[mpeg @ 0xaaaae0990b50] buffer underflow st=0 bufi=11519 size=25576
[mpeg @ 0xaaaae0990b50] buffer underflow st=0 bufi=13560 size=25576
[mpeg @ 0xaaaae0990b50] buffer underflow st=0 bufi=15601 size=25576
[mpeg @ 0xaaaae0990b50] buffer underflow st=0 bufi=17642 size=25576
[mpeg @ 0xaaaae0990b50] buffer underflow st=0 bufi=19683 size=25576
[mpeg @ 0xaaaae0990b50] buffer underflow st=0 bufi=21724 size=25576
[mpeg @ 0xaaaae0990b50] buffer underflow st=0 bufi=23765 size=25576
pts:259200 pts_time:2.88 dts:255600 dts_time:2.84 duration:0 duration_time:0 stream_index:0
[mpeg @ 0xaaaae0990b50] buffer underflow st=0 bufi=209 size=3458
[mpeg @ 0xaaaae0990b50] buffer underflow st=0 bufi=2250 size=3458
pts:262800 pts_time:2.92 dts:259200 dts_time:2.88 duration:0 duration_time:0 stream_index:0
pts:266400 pts_time:2.96 dts:262800 dts_time:2.92 duration:0 duration_time:0 stream_index:0
pts:270000 pts_time:3 dts:266400 dts_time:2.96 duration:0 duration_time:0 stream_index:0
[mpeg @ 0xaaaae0990b50] buffer underflow st=0 bufi=661 size=3038
[mpeg @ 0xaaaae0990b50] buffer underflow st=0 bufi=2702 size=3038
pts:273600 pts_time:3.04 dts:270000 dts_time:3 duration:0 duration_time:0 stream_index:0
pts:277200 pts_time:3.08 dts:273600 dts_time:3.04 duration:0 duration_time:0 stream_index:0
pts:280800 pts_time:3.12 dts:277200 dts_time:3.08 duration:0 duration_time:0 stream_index:0
[mpeg @ 0xaaaae0990b50] buffer underflow st=0 bufi=166 size=565
pts:284400 pts_time:3.16 dts:280800 dts_time:3.12 duration:0 duration_time:0 stream_index:0
[mpeg @ 0xaaaae0990b50] buffer underflow st=0 bufi=1633 size=5191
[mpeg @ 0xaaaae0990b50] buffer underflow st=0 bufi=3674 size=5191
pts:288000 pts_time:3.2 dts:284400 dts_time:3.16 duration:0 duration_time:0 stream_index:0
pts:291600 pts_time:3.24 dts:288000 dts_time:3.2 duration:0 duration_time:0 stream_index:0
pts:295200 pts_time:3.28 dts:291600 dts_time:3.24 duration:0 duration_time:0 stream_index:0
[mpeg @ 0xaaaae0990b50] buffer underflow st=0 bufi=368 size=1755
pts:298800 pts_time:3.32 dts:295200 dts_time:3.28 duration:0 duration_time:0 stream_index:0
[mpeg @ 0xaaaae0990b50] buffer underflow st=0 bufi=645 size=34392
[mpeg @ 0xaaaae0990b50] buffer underflow st=0 bufi=2686 size=34392
[mpeg @ 0xaaaae0990b50] buffer underflow st=0 bufi=4727 size=34392
[mpeg @ 0xaaaae0990b50] buffer underflow st=0 bufi=6768 size=34392
[mpeg @ 0xaaaae0990b50] buffer underflow st=0 bufi=8809 size=34392
[mpeg @ 0xaaaae0990b50] buffer underflow st=0 bufi=10850 size=34392
[mpeg @ 0xaaaae0990b50] buffer underflow st=0 bufi=12891 size=34392
[mpeg @ 0xaaaae0990b50] buffer underflow st=0 bufi=14932 size=34392
[mpeg @ 0xaaaae0990b50] buffer underflow st=0 bufi=16973 size=34392
[mpeg @ 0xaaaae0990b50] buffer underflow st=0 bufi=19014 size=34392
[mpeg @ 0xaaaae0990b50] buffer underflow st=0 bufi=21055 size=34392
[mpeg @ 0xaaaae0990b50] buffer underflow st=0 bufi=23096 size=34392
[mpeg @ 0xaaaae0990b50] buffer underflow st=0 bufi=25137 size=34392
[mpeg @ 0xaaaae0990b50] buffer underflow st=0 bufi=27178 size=34392
[mpeg @ 0xaaaae0990b50] buffer underflow st=0 bufi=29219 size=34392
[mpeg @ 0xaaaae0990b50] buffer underflow st=0 bufi=31260 size=34392
[mpeg @ 0xaaaae0990b50] buffer underflow st=0 bufi=33301 size=34392
pts:302400 pts_time:3.36 dts:298800 dts_time:3.32 duration:0 duration_time:0 stream_index:0
pts:306000 pts_time:3.4 dts:302400 dts_time:3.36 duration:0 duration_time:0 stream_index:0
[mpeg @ 0xaaaae0990b50] buffer underflow st=0 bufi=475 size=1045
pts:309600 pts_time:3.44 dts:306000 dts_time:3.4 duration:0 duration_time:0 stream_index:0
pts:313200 pts_time:3.48 dts:309600 dts_time:3.44 duration:0 duration_time:0 stream_index:0
pts:316800 pts_time:3.52 dts:313200 dts_time:3.48 duration:0 duration_time:0 stream_index:0
pts:320400 pts_time:3.56 dts:316800 dts_time:3.52 duration:0 duration_time:0 stream_index:0
[mpeg @ 0xaaaae0990b50] buffer underflow st=0 bufi=570 size=3775
[mpeg @ 0xaaaae0990b50] buffer underflow st=0 bufi=2611 size=3775
pts:324000 pts_time:3.6 dts:320400 dts_time:3.56 duration:0 duration_time:0 stream_index:0
pts:327600 pts_time:3.64 dts:324000 dts_time:3.6 duration:0 duration_time:0 stream_index:0
pts:331200 pts_time:3.68 dts:327600 dts_time:3.64 duration:0 duration_time:0 stream_index:0
[mpeg @ 0xaaaae0990b50] buffer underflow st=0 bufi=726 size=1977
pts:334800 pts_time:3.72 dts:331200 dts_time:3.68 duration:0 duration_time:0 stream_index:0
pts:338400 pts_time:3.76 dts:334800 dts_time:3.72 duration:0 duration_time:0 stream_index:0
pts:342000 pts_time:3.8 dts:338400 dts_time:3.76 duration:0 duration_time:0 stream_index:0
[mpeg @ 0xaaaae0990b50] buffer underflow st=0 bufi=632 size=37883
[mpeg @ 0xaaaae0990b50] buffer underflow st=0 bufi=2673 size=37883
[mpeg @ 0xaaaae0990b50] buffer underflow st=0 bufi=4714 size=37883
[mpeg @ 0xaaaae0990b50] buffer underflow st=0 bufi=6755 size=37883
[mpeg @ 0xaaaae0990b50] buffer underflow st=0 bufi=8796 size=37883
[mpeg @ 0xaaaae0990b50] buffer underflow st=0 bufi=10837 size=37883
[mpeg @ 0xaaaae0990b50] buffer underflow st=0 bufi=12878 size=37883
[mpeg @ 0xaaaae0990b50] buffer underflow st=0 bufi=14919 size=37883
[mpeg @ 0xaaaae0990b50] buffer underflow st=0 bufi=16960 size=37883
[mpeg @ 0xaaaae0990b50] buffer underflow st=0 bufi=19001 size=37883
[mpeg @ 0xaaaae0990b50] buffer underflow st=0 bufi=21042 size=37883
[mpeg @ 0xaaaae0990b50] buffer underflow st=0 bufi=23083 size=37883
[mpeg @ 0xaaaae0990b50] buffer underflow st=0 bufi=25124 size=37883
[mpeg @ 0xaaaae0990b50] buffer underflow st=0 bufi=27165 size=37883
[mpeg @ 0xaaaae0990b50] buffer underflow st=0 bufi=29206 size=37883
[mpeg @ 0xaaaae0990b50] buffer underflow st=0 bufi=31247 size=37883
[mpeg @ 0xaaaae0990b50] buffer underflow st=0 bufi=33288 size=37883
[mpeg @ 0xaaaae0990b50] buffer underflow st=0 bufi=35329 size=37883
[mpeg @ 0xaaaae0990b50] buffer underflow st=0 bufi=37370 size=37883
pts:345600 pts_time:3.84 dts:342000 dts_time:3.8 duration:0 duration_time:0 stream_index:0
pts:349200 pts_time:3.88 dts:345600 dts_time:3.84 duration:0 duration_time:0 stream_index:0
[mpeg @ 0xaaaae0990b50] buffer underflow st=0 bufi=430 size=479
pts:352800 pts_time:3.92 dts:349200 dts_time:3.88 duration:0 duration_time:0 stream_index:0
pts:356400 pts_time:3.96 dts:352800 dts_time:3.92 duration:0 duration_time:0 stream_index:0
pts:360000 pts_time:4 dts:356400 dts_time:3.96 duration:0 duration_time:0 stream_index:0
[mpeg @ 0xaaaae0990b50] buffer underflow st=0 bufi=1392 size=25744
[mpeg @ 0xaaaae0990b50] buffer underflow st=0 bufi=3433 size=25744
[mpeg @ 0xaaaae0990b50] buffer underflow st=0 bufi=5474 size=25744
[mpeg @ 0xaaaae0990b50] buffer underflow st=0 bufi=7503 size=25744
[mpeg @ 0xaaaae0990b50] buffer underflow st=0 bufi=9544 size=25744
[mpeg @ 0xaaaae0990b50] buffer underflow st=0 bufi=11585 size=25744
[mpeg @ 0xaaaae0990b50] buffer underflow st=0 bufi=13626 size=25744
[mpeg @ 0xaaaae0990b50] buffer underflow st=0 bufi=15667 size=25744
[mpeg @ 0xaaaae0990b50] buffer underflow st=0 bufi=17708 size=25744
[mpeg @ 0xaaaae0990b50] buffer underflow st=0 bufi=19749 size=25744
[mpeg @ 0xaaaae0990b50] buffer underflow st=0 bufi=21790 size=25744
[mpeg @ 0xaaaae0990b50] buffer underflow st=0 bufi=23831 size=25744
pts:363600 pts_time:4.04 dts:360000 dts_time:4 duration:0 duration_time:0 stream_index:0
[mpeg @ 0xaaaae0990b50] buffer underflow st=0 bufi=119 size=5531
[mpeg @ 0xaaaae0990b50] buffer underflow st=0 bufi=2160 size=5531
[mpeg @ 0xaaaae0990b50] buffer underflow st=0 bufi=4201 size=5531
pts:367200 pts_time:4.08 dts:363600 dts_time:4.04 duration:0 duration_time:0 stream_index:0
[mpeg @ 0xaaaae0990b50] buffer underflow st=0 bufi=702 size=4989
[mpeg @ 0xaaaae0990b50] buffer underflow st=0 bufi=2743 size=4989
[mpeg @ 0xaaaae0990b50] buffer underflow st=0 bufi=4784 size=4989
pts:370800 pts_time:4.12 dts:367200 dts_time:4.08 duration:0 duration_time:0 stream_index:0
[mpeg @ 0xaaaae0990b50] buffer underflow st=0 bufi=1827 size=3394
pts:374400 pts_time:4.16 dts:370800 dts_time:4.12 duration:0 duration_time:0 stream_index:0
[mpeg @ 0xaaaae0990b50] buffer underflow st=0 bufi=465 size=2726
[mpeg @ 0xaaaae0990b50] buffer underflow st=0 bufi=2506 size=2726
pts:378000 pts_time:4.2 dts:374400 dts_time:4.16 duration:0 duration_time:0 stream_index:0
[mpeg @ 0xaaaae0990b50] buffer underflow st=0 bufi=1812 size=3468
pts:381600 pts_time:4.24 dts:378000 dts_time:4.2 duration:0 duration_time:0 stream_index:0
[mpeg @ 0xaaaae0990b50] buffer underflow st=0 bufi=376 size=2507
[mpeg @ 0xaaaae0990b50] buffer underflow st=0 bufi=2417 size=2507
pts:385200 pts_time:4.28 dts:381600 dts_time:4.24 duration:0 duration_time:0 stream_index:0
[mpeg @ 0xaaaae0990b50] buffer underflow st=0 bufi=1942 size=17343
[mpeg @ 0xaaaae0990b50] buffer underflow st=0 bufi=3983 size=17343
[mpeg @ 0xaaaae0990b50] buffer underflow st=0 bufi=6024 size=17343
[mpeg @ 0xaaaae0990b50] buffer underflow st=0 bufi=8065 size=17343
[mpeg @ 0xaaaae0990b50] buffer underflow st=0 bufi=10106 size=17343
[mpeg @ 0xaaaae0990b50] buffer underflow st=0 bufi=12147 size=17343
[mpeg @ 0xaaaae0990b50] buffer underflow st=0 bufi=14188 size=17343
[mpeg @ 0xaaaae0990b50] buffer underflow st=0 bufi=16229 size=17343
pts:388800 pts_time:4.32 dts:385200 dts_time:4.28 duration:0 duration_time:0 stream_index:0
[mpeg @ 0xaaaae0990b50] buffer underflow st=0 bufi=918 size=3234
[mpeg @ 0xaaaae0990b50] buffer underflow st=0 bufi=2959 size=3234
pts:392400 pts_time:4.36 dts:388800 dts_time:4.32 duration:0 duration_time:0 stream_index:0
[mpeg @ 0xaaaae0990b50] buffer underflow st=0 bufi=1757 size=1952
pts:396000 pts_time:4.4 dts:392400 dts_time:4.36 duration:0 duration_time:0 stream_index:0
[mpeg @ 0xaaaae0990b50] buffer underflow st=0 bufi=1837 size=3048
pts:399600 pts_time:4.44 dts:396000 dts_time:4.4 duration:0 duration_time:0 stream_index:0
[mpeg @ 0xaaaae0990b50] buffer underflow st=0 bufi=821 size=1558
pts:403200 pts_time:4.48 dts:399600 dts_time:4.44 duration:0 duration_time:0 stream_index:0
[mpeg @ 0xaaaae0990b50] buffer underflow st=0 bufi=1295 size=3114
pts:406800 pts_time:4.52 dts:403200 dts_time:4.48 duration:0 duration_time:0 stream_index:0
[mpeg @ 0xaaaae0990b50] buffer underflow st=0 bufi=213 size=2987
[mpeg @ 0xaaaae0990b50] buffer underflow st=0 bufi=2254 size=2987
pts:410400 pts_time:4.56 dts:406800 dts_time:4.52 duration:0 duration_time:0 stream_index:0
[mpeg @ 0xaaaae0990b50] buffer underflow st=0 bufi=1299 size=1957
pts:414000 pts_time:4.6 dts:410400 dts_time:4.56 duration:0 duration_time:0 stream_index:0
[mpeg @ 0xaaaae0990b50] buffer underflow st=0 bufi=1374 size=1728
pts:417600 pts_time:4.64 dts:414000 dts_time:4.6 duration:0 duration_time:0 stream_index:0
[mpeg @ 0xaaaae0990b50] buffer underflow st=0 bufi=1678 size=3125
pts:421200 pts_time:4.68 dts:417600 dts_time:4.64 duration:0 duration_time:0 stream_index:0
[mpeg @ 0xaaaae0990b50] buffer underflow st=0 bufi=585 size=2631
pts:424800 pts_time:4.72 dts:421200 dts_time:4.68 duration:0 duration_time:0 stream_index:0
[mpeg @ 0xaaaae0990b50] buffer underflow st=0 bufi=2626 size=2631
[mpeg @ 0xaaaae0990b50] buffer underflow st=0 bufi=2027 size=2143
pts:428400 pts_time:4.76 dts:424800 dts_time:4.72 duration:0 duration_time:0 stream_index:0
[mpeg @ 0xaaaae0990b50] buffer underflow st=0 bufi=1916 size=9018
[mpeg @ 0xaaaae0990b50] buffer underflow st=0 bufi=3957 size=9018
[mpeg @ 0xaaaae0990b50] buffer underflow st=0 bufi=5998 size=9018
[mpeg @ 0xaaaae0990b50] buffer underflow st=0 bufi=8039 size=9018
pts:432000 pts_time:4.8 dts:428400 dts_time:4.76 duration:0 duration_time:0 stream_index:0
[mpeg @ 0xaaaae0990b50] buffer underflow st=0 bufi=1053 size=1834
pts:435600 pts_time:4.84 dts:432000 dts_time:4.8 duration:0 duration_time:0 stream_index:0
[mpeg @ 0xaaaae0990b50] buffer underflow st=0 bufi=1251 size=2004
pts:439200 pts_time:4.88 dts:435600 dts_time:4.84 duration:0 duration_time:0 stream_index:0
[mpeg @ 0xaaaae0990b50] buffer underflow st=0 bufi=1279 size=2775
pts:442800 pts_time:4.92 dts:439200 dts_time:4.88 duration:0 duration_time:0 stream_index:0
[mpeg @ 0xaaaae0990b50] buffer underflow st=0 bufi=536 size=1689
pts:446400 pts_time:4.96 dts:442800 dts_time:4.92 duration:0 duration_time:0 stream_index:0
[mpeg @ 0xaaaae0990b50] buffer underflow st=0 bufi=879 size=1862
pts:450000 pts_time:5 dts:446400 dts_time:4.96 duration:0 duration_time:0 stream_index:0
[mpeg @ 0xaaaae0990b50] buffer underflow st=0 bufi=1022 size=2540
pts:453600 pts_time:5.04 dts:450000 dts_time:5 duration:0 duration_time:0 stream_index:0
[mpeg @ 0xaaaae0990b50] buffer underflow st=0 bufi=514 size=2039
pts:457200 pts_time:5.08 dts:453600 dts_time:5.04 duration:0 duration_time:0 stream_index:0
[mpeg @ 0xaaaae0990b50] buffer underflow st=0 bufi=507 size=2217
pts:460800 pts_time:5.12 dts:457200 dts_time:5.08 duration:0 duration_time:0 stream_index:0
[mpeg @ 0xaaaae0990b50] buffer underflow st=0 bufi=322 size=2073
pts:464400 pts_time:5.16 dts:460800 dts_time:5.12 duration:0 duration_time:0 stream_index:0
[mpeg @ 0xaaaae0990b50] buffer underflow st=0 bufi=281 size=2986
[mpeg @ 0xaaaae0990b50] buffer underflow st=0 bufi=2322 size=2986
pts:468000 pts_time:5.2 dts:464400 dts_time:5.16 duration:0 duration_time:0 stream_index:0
[mpeg @ 0xaaaae0990b50] buffer underflow st=0 bufi=1368 size=2356
pts:471600 pts_time:5.24 dts:468000 dts_time:5.2 duration:0 duration_time:0 stream_index:0
[mpeg @ 0xaaaae0990b50] buffer underflow st=0 bufi=1044 size=10784
[mpeg @ 0xaaaae0990b50] buffer underflow st=0 bufi=3085 size=10784
[mpeg @ 0xaaaae0990b50] buffer underflow st=0 bufi=5126 size=10784
[mpeg @ 0xaaaae0990b50] buffer underflow st=0 bufi=7167 size=10784
[mpeg @ 0xaaaae0990b50] buffer underflow st=0 bufi=9208 size=10784
pts:475200 pts_time:5.28 dts:471600 dts_time:5.24 duration:0 duration_time:0 stream_index:0
[mpeg @ 0xaaaae0990b50] buffer underflow st=0 bufi=456 size=3472
[mpeg @ 0xaaaae0990b50] buffer underflow st=0 bufi=2497 size=3472
pts:478800 pts_time:5.32 dts:475200 dts_time:5.28 duration:0 duration_time:0 stream_index:0
[mpeg @ 0xaaaae0990b50] buffer underflow st=0 bufi=1057 size=2350
pts:482400 pts_time:5.36 dts:478800 dts_time:5.32 duration:0 duration_time:0 stream_index:0
[mpeg @ 0xaaaae0990b50] buffer underflow st=0 bufi=739 size=3399
[mpeg @ 0xaaaae0990b50] buffer underflow st=0 bufi=2780 size=3399
pts:486000 pts_time:5.4 dts:482400 dts_time:5.36 duration:0 duration_time:0 stream_index:0
[mpeg @ 0xaaaae0990b50] buffer underflow st=0 bufi=1413 size=2065
pts:489600 pts_time:5.44 dts:486000 dts_time:5.4 duration:0 duration_time:0 stream_index:0
[mpeg @ 0xaaaae0990b50] buffer underflow st=0 bufi=1380 size=1997
pts:493200 pts_time:5.48 dts:489600 dts_time:5.44 duration:0 duration_time:0 stream_index:0
[mpeg @ 0xaaaae0990b50] buffer underflow st=0 bufi=1415 size=3455
pts:496800 pts_time:5.52 dts:493200 dts_time:5.48 duration:0 duration_time:0 stream_index:0
[mpeg @ 0xaaaae0990b50] buffer underflow st=0 bufi=1 size=2210
[mpeg @ 0xaaaae0990b50] buffer underflow st=0 bufi=2042 size=2210
pts:500400 pts_time:5.56 dts:496800 dts_time:5.52 duration:0 duration_time:0 stream_index:0
[mpeg @ 0xaaaae0990b50] buffer underflow st=0 bufi=1864 size=2768
pts:504000 pts_time:5.6 dts:500400 dts_time:5.56 duration:0 duration_time:0 stream_index:0
[mpeg @ 0xaaaae0990b50] buffer underflow st=0 bufi=1128 size=2367
pts:507600 pts_time:5.64 dts:504000 dts_time:5.6 duration:0 duration_time:0 stream_index:0
[mpeg @ 0xaaaae0990b50] buffer underflow st=0 bufi=793 size=2142
pts:511200 pts_time:5.68 dts:507600 dts_time:5.64 duration:0 duration_time:0 stream_index:0
[mpeg @ 0xaaaae0990b50] buffer underflow st=0 bufi=683 size=2380
pts:514800 pts_time:5.72 dts:511200 dts_time:5.68 duration:0 duration_time:0 stream_index:0
[mpeg @ 0xaaaae0990b50] buffer underflow st=0 bufi=335 size=8962
[mpeg @ 0xaaaae0990b50] buffer underflow st=0 bufi=2376 size=8962
[mpeg @ 0xaaaae0990b50] buffer underflow st=0 bufi=4417 size=8962
[mpeg @ 0xaaaae0990b50] buffer underflow st=0 bufi=6458 size=8962
[mpeg @ 0xaaaae0990b50] buffer underflow st=0 bufi=8499 size=8962
pts:518400 pts_time:5.76 dts:514800 dts_time:5.72 duration:0 duration_time:0 stream_index:0
[mpeg @ 0xaaaae0990b50] buffer underflow st=0 bufi=1569 size=1870
pts:522000 pts_time:5.8 dts:518400 dts_time:5.76 duration:0 duration_time:0 stream_index:0
[mpeg @ 0xaaaae0990b50] buffer underflow st=0 bufi=1731 size=2064
pts:525600 pts_time:5.84 dts:522000 dts_time:5.8 duration:0 duration_time:0 stream_index:0
[mpeg @ 0xaaaae0990b50] buffer underflow st=0 bufi=1699 size=2759
pts:529200 pts_time:5.88 dts:525600 dts_time:5.84 duration:0 duration_time:0 stream_index:0
[mpeg @ 0xaaaae0990b50] buffer underflow st=0 bufi=972 size=1679
pts:532800 pts_time:5.92 dts:529200 dts_time:5.88 duration:0 duration_time:0 stream_index:0
[mpeg @ 0xaaaae0990b50] buffer underflow st=0 bufi=1325 size=1903
pts:536400 pts_time:5.96 dts:532800 dts_time:5.92 duration:0 duration_time:0 stream_index:0
[mpeg @ 0xaaaae0990b50] buffer underflow st=0 bufi=1454 size=2575
pts:540000 pts_time:6 dts:536400 dts_time:5.96 duration:0 duration_time:0 stream_index:0
[mpeg @ 0xaaaae0990b50] buffer underflow st=0 bufi=911 size=2145
pts:543600 pts_time:6.04 dts:540000 dts_time:6 duration:0 duration_time:0 stream_index:0
[mpeg @ 0xaaaae0990b50] buffer underflow st=0 bufi=798 size=2179
pts:547200 pts_time:6.08 dts:543600 dts_time:6.04 duration:0 duration_time:0 stream_index:0
[mpeg @ 0xaaaae0990b50] buffer underflow st=0 bufi=651 size=1688
pts:550800 pts_time:6.12 dts:547200 dts_time:6.08 duration:0 duration_time:0 stream_index:0
[mpeg @ 0xaaaae0990b50] buffer underflow st=0 bufi=995 size=2632
pts:554400 pts_time:6.16 dts:550800 dts_time:6.12 duration:0 duration_time:0 stream_index:0
[mpeg @ 0xaaaae0990b50] buffer underflow st=0 bufi=395 size=1782
pts:558000 pts_time:6.2 dts:554400 dts_time:6.16 duration:0 duration_time:0 stream_index:0
[mpeg @ 0xaaaae0990b50] buffer underflow st=0 bufi=645 size=10423
[mpeg @ 0xaaaae0990b50] buffer underflow st=0 bufi=2686 size=10423
[mpeg @ 0xaaaae0990b50] buffer underflow st=0 bufi=4727 size=10423
[mpeg @ 0xaaaae0990b50] buffer underflow st=0 bufi=6768 size=10423
[mpeg @ 0xaaaae0990b50] buffer underflow st=0 bufi=8809 size=10423
pts:561600 pts_time:6.24 dts:558000 dts_time:6.2 duration:0 duration_time:0 stream_index:0
[mpeg @ 0xaaaae0990b50] buffer underflow st=0 bufi=418 size=2843
[mpeg @ 0xaaaae0990b50] buffer underflow st=0 bufi=2459 size=2843
pts:565200 pts_time:6.28 dts:561600 dts_time:6.24 duration:0 duration_time:0 stream_index:0
[mpeg @ 0xaaaae0990b50] buffer underflow st=0 bufi=1648 size=2054
pts:568800 pts_time:6.32 dts:565200 dts_time:6.28 duration:0 duration_time:0 stream_index:0
[mpeg @ 0xaaaae0990b50] buffer underflow st=0 bufi=1626 size=2850
pts:572400 pts_time:6.36 dts:568800 dts_time:6.32 duration:0 duration_time:0 stream_index:0
[mpeg @ 0xaaaae0990b50] buffer underflow st=0 bufi=808 size=1783
pts:576000 pts_time:6.4 dts:572400 dts_time:6.36 duration:0 duration_time:0 stream_index:0
[mpeg @ 0xaaaae0990b50] buffer underflow st=0 bufi=1045 size=1607
pts:579600 pts_time:6.44 dts:576000 dts_time:6.4 duration:0 duration_time:0 stream_index:0
[mpeg @ 0xaaaae0990b50] buffer underflow st=0 bufi=1470 size=2830
pts:583200 pts_time:6.48 dts:579600 dts_time:6.44 duration:0 duration_time:0 stream_index:0
[mpeg @ 0xaaaae0990b50] buffer underflow st=0 bufi=672 size=1824
pts:586800 pts_time:6.52 dts:583200 dts_time:6.48 duration:0 duration_time:0 stream_index:0
[mpeg @ 0xaaaae0990b50] buffer underflow st=0 bufi=880 size=2322
pts:590400 pts_time:6.56 dts:586800 dts_time:6.52 duration:0 duration_time:0 stream_index:0
[mpeg @ 0xaaaae0990b50] buffer underflow st=0 bufi=590 size=1928
pts:594000 pts_time:6.6 dts:590400 dts_time:6.56 duration:0 duration_time:0 stream_index:0
[mpeg @ 0xaaaae0990b50] buffer underflow st=0 bufi=694 size=2349
pts:597600 pts_time:6.64 dts:594000 dts_time:6.6 duration:0 duration_time:0 stream_index:0
[mpeg @ 0xaaaae0990b50] buffer underflow st=0 bufi=377 size=2110
pts:601200 pts_time:6.68 dts:597600 dts_time:6.64 duration:0 duration_time:0 stream_index:0
[mpeg @ 0xaaaae0990b50] buffer underflow st=0 bufi=299 size=8958
[mpeg @ 0xaaaae0990b50] buffer underflow st=0 bufi=2340 size=8958
[mpeg @ 0xaaaae0990b50] buffer underflow st=0 bufi=4381 size=8958
[mpeg @ 0xaaaae0990b50] buffer underflow st=0 bufi=6422 size=8958
[mpeg @ 0xaaaae0990b50] buffer underflow st=0 bufi=8463 size=8958
pts:604800 pts_time:6.72 dts:601200 dts_time:6.68 duration:0 duration_time:0 stream_index:0
[mpeg @ 0xaaaae0990b50] buffer underflow st=0 bufi=1537 size=1835
pts:608400 pts_time:6.76 dts:604800 dts_time:6.72 duration:0 duration_time:0 stream_index:0
[mpeg @ 0xaaaae0990b50] buffer underflow st=0 bufi=1734 size=2036
pts:612000 pts_time:6.8 dts:608400 dts_time:6.76 duration:0 duration_time:0 stream_index:0
[mpeg @ 0xaaaae0990b50] buffer underflow st=0 bufi=1730 size=2707
pts:615600 pts_time:6.84 dts:612000 dts_time:6.8 duration:0 duration_time:0 stream_index:0
[mpeg @ 0xaaaae0990b50] buffer underflow st=0 bufi=1055 size=1685
pts:619200 pts_time:6.88 dts:615600 dts_time:6.84 duration:0 duration_time:0 stream_index:0
[mpeg @ 0xaaaae0990b50] buffer underflow st=0 bufi=1402 size=1870
pts:622800 pts_time:6.92 dts:619200 dts_time:6.88 duration:0 duration_time:0 stream_index:0
[mpeg @ 0xaaaae0990b50] buffer underflow st=0 bufi=1564 size=2537
pts:626400 pts_time:6.96 dts:622800 dts_time:6.92 duration:0 duration_time:0 stream_index:0
[mpeg @ 0xaaaae0990b50] buffer underflow st=0 bufi=1059 size=2052
pts:630000 pts_time:7 dts:626400 dts_time:6.96 duration:0 duration_time:0 stream_index:0
[mpeg @ 0xaaaae0990b50] buffer underflow st=0 bufi=1039 size=2262
pts:633600 pts_time:7.04 dts:630000 dts_time:7 duration:0 duration_time:0 stream_index:0
[mpeg @ 0xaaaae0990b50] buffer underflow st=0 bufi=809 size=1685
pts:637200 pts_time:7.08 dts:633600 dts_time:7.04 duration:0 duration_time:0 stream_index:0
[mpeg @ 0xaaaae0990b50] buffer underflow st=0 bufi=1156 size=2521
pts:640800 pts_time:7.12 dts:637200 dts_time:7.08 duration:0 duration_time:0 stream_index:0
[mpeg @ 0xaaaae0990b50] buffer underflow st=0 bufi=667 size=1878
pts:644400 pts_time:7.16 dts:640800 dts_time:7.12 duration:0 duration_time:0 stream_index:0
[mpeg @ 0xaaaae0990b50] buffer underflow st=0 bufi=821 size=10779
[mpeg @ 0xaaaae0990b50] buffer underflow st=0 bufi=2862 size=10779
[mpeg @ 0xaaaae0990b50] buffer underflow st=0 bufi=4903 size=10779
[mpeg @ 0xaaaae0990b50] buffer underflow st=0 bufi=6944 size=10779
[mpeg @ 0xaaaae0990b50] buffer underflow st=0 bufi=8985 size=10779
pts:648000 pts_time:7.2 dts:644400 dts_time:7.16 duration:0 duration_time:0 stream_index:0
[mpeg @ 0xaaaae0990b50] buffer underflow st=0 bufi=238 size=3415
[mpeg @ 0xaaaae0990b50] buffer underflow st=0 bufi=2279 size=3415
pts:651600 pts_time:7.24 dts:648000 dts_time:7.2 duration:0 duration_time:0 stream_index:0
[mpeg @ 0xaaaae0990b50] buffer underflow st=0 bufi=896 size=2343
pts:655200 pts_time:7.28 dts:651600 dts_time:7.24 duration:0 duration_time:0 stream_index:0
[mpeg @ 0xaaaae0990b50] buffer underflow st=0 bufi=585 size=3421
[mpeg @ 0xaaaae0990b50] buffer underflow st=0 bufi=2626 size=3421
pts:658800 pts_time:7.32 dts:655200 dts_time:7.28 duration:0 duration_time:0 stream_index:0
[mpeg @ 0xaaaae0990b50] buffer underflow st=0 bufi=1237 size=2102
pts:662400 pts_time:7.36 dts:658800 dts_time:7.32 duration:0 duration_time:0 stream_index:0
[mpeg @ 0xaaaae0990b50] buffer underflow st=0 bufi=1167 size=2029
pts:666000 pts_time:7.4 dts:662400 dts_time:7.36 duration:0 duration_time:0 stream_index:0
[mpeg @ 0xaaaae0990b50] buffer underflow st=0 bufi=1170 size=3437
[mpeg @ 0xaaaae0990b50] buffer underflow st=0 bufi=3211 size=3437
pts:669600 pts_time:7.44 dts:666000 dts_time:7.4 duration:0 duration_time:0 stream_index:0
[mpeg @ 0xaaaae0990b50] buffer underflow st=0 bufi=1806 size=2235
pts:673200 pts_time:7.48 dts:669600 dts_time:7.44 duration:0 duration_time:0 stream_index:0
[mpeg @ 0xaaaae0990b50] buffer underflow st=0 bufi=1603 size=2779
pts:676800 pts_time:7.52 dts:673200 dts_time:7.48 duration:0 duration_time:0 stream_index:0
[mpeg @ 0xaaaae0990b50] buffer underflow st=0 bufi=856 size=2835
pts:680400 pts_time:7.56 dts:676800 dts_time:7.52 duration:0 duration_time:0 stream_index:0
[mpeg @ 0xaaaae0990b50] buffer underflow st=0 bufi=53 size=2651
[mpeg @ 0xaaaae0990b50] buffer underflow st=0 bufi=2094 size=2651
pts:684000 pts_time:7.6 dts:680400 dts_time:7.56 duration:0 duration_time:0 stream_index:0
[mpeg @ 0xaaaae0990b50] buffer underflow st=0 bufi=1475 size=2986
pts:687600 pts_time:7.64 dts:684000 dts_time:7.6 duration:0 duration_time:0 stream_index:0
[mpeg @ 0xaaaae0990b50] buffer underflow st=0 bufi=521 size=9022
[mpeg @ 0xaaaae0990b50] buffer underflow st=0 bufi=2562 size=9022
[mpeg @ 0xaaaae0990b50] buffer underflow st=0 bufi=4603 size=9022
[mpeg @ 0xaaaae0990b50] buffer underflow st=0 bufi=6644 size=9022
[mpeg @ 0xaaaae0990b50] buffer underflow st=0 bufi=8685 size=9022
pts:691200 pts_time:7.68 dts:687600 dts_time:7.64 duration:0 duration_time:0 stream_index:0
pts:694800 pts_time:7.72 dts:691200 dts_time:7.68 duration:0 duration_time:0 stream_index:0
[mpeg @ 0xaaaae0990b50] buffer underflow st=0 bufi=336 size=1619
pts:698400 pts_time:7.76 dts:694800 dts_time:7.72 duration:0 duration_time:0 stream_index:0
[mpeg @ 0xaaaae0990b50] buffer underflow st=0 bufi=749 size=2342
pts:702000 pts_time:7.8 dts:698400 dts_time:7.76 duration:0 duration_time:0 stream_index:0
[mpeg @ 0xaaaae0990b50] buffer underflow st=0 bufi=439 size=1519
pts:705600 pts_time:7.84 dts:702000 dts_time:7.8 duration:0 duration_time:0 stream_index:0
[mpeg @ 0xaaaae0990b50] buffer underflow st=0 bufi=952 size=1604
pts:709200 pts_time:7.88 dts:705600 dts_time:7.84 duration:0 duration_time:0 stream_index:0
[mpeg @ 0xaaaae0990b50] buffer underflow st=0 bufi=1368 size=2250
pts:712800 pts_time:7.92 dts:709200 dts_time:7.88 duration:0 duration_time:0 stream_index:0
[mpeg @ 0xaaaae0990b50] buffer underflow st=0 bufi=1150 size=1744
pts:716400 pts_time:7.96 dts:712800 dts_time:7.92 duration:0 duration_time:0 stream_index:0
[mpeg @ 0xaaaae0990b50] buffer underflow st=0 bufi=1438 size=2019
pts:720000 pts_time:8 dts:716400 dts_time:7.96 duration:0 duration_time:0 stream_index:0
[mpeg @ 0xaaaae0990b50] buffer underflow st=0 bufi=1451 size=1875
pts:723600 pts_time:8.04 dts:720000 dts_time:8 duration:0 duration_time:0 stream_index:0
[mpeg @ 0xaaaae0990b50] buffer underflow st=0 bufi=1608 size=2728
pts:727200 pts_time:8.08 dts:723600 dts_time:8.04 duration:0 duration_time:0 stream_index:0
[mpeg @ 0xaaaae0990b50] buffer underflow st=0 bufi=912 size=1925
pts:730800 pts_time:8.12 dts:727200 dts_time:8.08 duration:0 duration_time:0 stream_index:0
[mpeg @ 0xaaaae0990b50] buffer underflow st=0 bufi=1019 size=10516
[mpeg @ 0xaaaae0990b50] buffer underflow st=0 bufi=3060 size=10516
[mpeg @ 0xaaaae0990b50] buffer underflow st=0 bufi=5101 size=10516
[mpeg @ 0xaaaae0990b50] buffer underflow st=0 bufi=7142 size=10516
[mpeg @ 0xaaaae0990b50] buffer underflow st=0 bufi=9183 size=10516
pts:734400 pts_time:8.16 dts:730800 dts_time:8.12 duration:0 duration_time:0 stream_index:0
[mpeg @ 0xaaaae0990b50] buffer underflow st=0 bufi=699 size=2862
[mpeg @ 0xaaaae0990b50] buffer underflow st=0 bufi=2740 size=2862
pts:738000 pts_time:8.2 dts:734400 dts_time:8.16 duration:0 duration_time:0 stream_index:0
[mpeg @ 0xaaaae0990b50] buffer underflow st=0 bufi=1910 size=2062
pts:741600 pts_time:8.24 dts:738000 dts_time:8.2 duration:0 duration_time:0 stream_index:0
[mpeg @ 0xaaaae0990b50] buffer underflow st=0 bufi=1880 size=2890
pts:745200 pts_time:8.28 dts:741600 dts_time:8.24 duration:0 duration_time:0 stream_index:0
[mpeg @ 0xaaaae0990b50] buffer underflow st=0 bufi=1022 size=1834
pts:748800 pts_time:8.32 dts:745200 dts_time:8.28 duration:0 duration_time:0 stream_index:0
[mpeg @ 0xaaaae0990b50] buffer underflow st=0 bufi=1220 size=1665
pts:752400 pts_time:8.36 dts:748800 dts_time:8.32 duration:0 duration_time:0 stream_index:0
[mpeg @ 0xaaaae0990b50] buffer underflow st=0 bufi=1587 size=2722
pts:756000 pts_time:8.4 dts:752400 dts_time:8.36 duration:0 duration_time:0 stream_index:0
[mpeg @ 0xaaaae0990b50] buffer underflow st=0 bufi=897 size=1777
pts:759600 pts_time:8.44 dts:756000 dts_time:8.4 duration:0 duration_time:0 stream_index:0
[mpeg @ 0xaaaae0990b50] buffer underflow st=0 bufi=1152 size=2440
pts:763200 pts_time:8.48 dts:759600 dts_time:8.44 duration:0 duration_time:0 stream_index:0
[mpeg @ 0xaaaae0990b50] buffer underflow st=0 bufi=744 size=1958
pts:766800 pts_time:8.52 dts:763200 dts_time:8.48 duration:0 duration_time:0 stream_index:0
[mpeg @ 0xaaaae0990b50] buffer underflow st=0 bufi=818 size=2253
pts:770400 pts_time:8.56 dts:766800 dts_time:8.52 duration:0 duration_time:0 stream_index:0
[mpeg @ 0xaaaae0990b50] buffer underflow st=0 bufi=597 size=2224
pts:774000 pts_time:8.6 dts:770400 dts_time:8.56 duration:0 duration_time:0 stream_index:0
[mpeg @ 0xaaaae0990b50] buffer underflow st=0 bufi=405 size=9004
[mpeg @ 0xaaaae0990b50] buffer underflow st=0 bufi=2446 size=9004
[mpeg @ 0xaaaae0990b50] buffer underflow st=0 bufi=4487 size=9004
[mpeg @ 0xaaaae0990b50] buffer underflow st=0 bufi=6528 size=9004
[mpeg @ 0xaaaae0990b50] buffer underflow st=0 bufi=8569 size=9004
pts:777600 pts_time:8.64 dts:774000 dts_time:8.6 duration:0 duration_time:0 stream_index:0
[mpeg @ 0xaaaae0990b50] buffer underflow st=0 bufi=1597 size=1834
pts:781200 pts_time:8.68 dts:777600 dts_time:8.64 duration:0 duration_time:0 stream_index:0
[mpeg @ 0xaaaae0990b50] buffer underflow st=0 bufi=1795 size=2037
pts:784800 pts_time:8.72 dts:781200 dts_time:8.68 duration:0 duration_time:0 stream_index:0
[mpeg @ 0xaaaae0990b50] buffer underflow st=0 bufi=1790 size=2776
pts:788400 pts_time:8.76 dts:784800 dts_time:8.72 duration:0 duration_time:0 stream_index:0
[mpeg @ 0xaaaae0990b50] buffer underflow st=0 bufi=1046 size=1690
pts:792000 pts_time:8.8 dts:788400 dts_time:8.76 duration:0 duration_time:0 stream_index:0
[mpeg @ 0xaaaae0990b50] buffer underflow st=0 bufi=1388 size=1945
pts:795600 pts_time:8.84 dts:792000 dts_time:8.8 duration:0 duration_time:0 stream_index:0
[mpeg @ 0xaaaae0990b50] buffer underflow st=0 bufi=1475 size=2529
pts:799200 pts_time:8.88 dts:795600 dts_time:8.84 duration:0 duration_time:0 stream_index:0
[mpeg @ 0xaaaae0990b50] buffer underflow st=0 bufi=978 size=2057
pts:802800 pts_time:8.92 dts:799200 dts_time:8.88 duration:0 duration_time:0 stream_index:0
[mpeg @ 0xaaaae0990b50] buffer underflow st=0 bufi=953 size=2242
pts:806400 pts_time:8.96 dts:802800 dts_time:8.92 duration:0 duration_time:0 stream_index:0
[mpeg @ 0xaaaae0990b50] buffer underflow st=0 bufi=743 size=1691
pts:810000 pts_time:9 dts:806400 dts_time:8.96 duration:0 duration_time:0 stream_index:0
[mpeg @ 0xaaaae0990b50] buffer underflow st=0 bufi=1084 size=2424
pts:813600 pts_time:9.04 dts:810000 dts_time:9 duration:0 duration_time:0 stream_index:0
[mpeg @ 0xaaaae0990b50] buffer underflow st=0 bufi=692 size=2025
pts:817200 pts_time:9.08 dts:813600 dts_time:9.04 duration:0 duration_time:0 stream_index:0
[mpeg @ 0xaaaae0990b50] buffer underflow st=0 bufi=699 size=10423
[mpeg @ 0xaaaae0990b50] buffer underflow st=0 bufi=2740 size=10423
[mpeg @ 0xaaaae0990b50] buffer underflow st=0 bufi=4781 size=10423
[mpeg @ 0xaaaae0990b50] buffer underflow st=0 bufi=6822 size=10423
[mpeg @ 0xaaaae0990b50] buffer underflow st=0 bufi=8863 size=10423
pts:820800 pts_time:9.12 dts:817200 dts_time:9.08 duration:0 duration_time:0 stream_index:0
[mpeg @ 0xaaaae0990b50] buffer underflow st=0 bufi=472 size=2866
[mpeg @ 0xaaaae0990b50] buffer underflow st=0 bufi=2513 size=2866
pts:824400 pts_time:9.16 dts:820800 dts_time:9.12 duration:0 duration_time:0 stream_index:0
[mpeg @ 0xaaaae0990b50] buffer underflow st=0 bufi=1679 size=2069
pts:828000 pts_time:9.2 dts:824400 dts_time:9.16 duration:0 duration_time:0 stream_index:0
[mpeg @ 0xaaaae0990b50] buffer underflow st=0 bufi=1642 size=3257
pts:831600 pts_time:9.24 dts:828000 dts_time:9.2 duration:0 duration_time:0 stream_index:0
[mpeg @ 0xaaaae0990b50] buffer underflow st=0 bufi=417 size=2034
pts:835200 pts_time:9.28 dts:831600 dts_time:9.24 duration:0 duration_time:0 stream_index:0
[mpeg @ 0xaaaae0990b50] buffer underflow st=0 bufi=415 size=2051
pts:838800 pts_time:9.32 dts:835200 dts_time:9.28 duration:0 duration_time:0 stream_index:0
[mpeg @ 0xaaaae0990b50] buffer underflow st=0 bufi=396 size=3452
[mpeg @ 0xaaaae0990b50] buffer underflow st=0 bufi=2437 size=3452
pts:842400 pts_time:9.36 dts:838800 dts_time:9.32 duration:0 duration_time:0 stream_index:0
[mpeg @ 0xaaaae0990b50] buffer underflow st=0 bufi=1005 size=2178
pts:846000 pts_time:9.4 dts:842400 dts_time:9.36 duration:0 duration_time:0 stream_index:0
[mpeg @ 0xaaaae0990b50] buffer underflow st=0 bufi=859 size=2725
pts:849600 pts_time:9.44 dts:846000 dts_time:9.4 duration:0 duration_time:0 stream_index:0
[mpeg @ 0xaaaae0990b50] buffer underflow st=0 bufi=166 size=2686
[mpeg @ 0xaaaae0990b50] buffer underflow st=0 bufi=2207 size=2686
pts:853200 pts_time:9.48 dts:849600 dts_time:9.44 duration:0 duration_time:0 stream_index:0
[mpeg @ 0xaaaae0990b50] buffer underflow st=0 bufi=1553 size=2563
pts:856800 pts_time:9.52 dts:853200 dts_time:9.48 duration:0 duration_time:0 stream_index:0
[mpeg @ 0xaaaae0990b50] buffer underflow st=0 bufi=1022 size=2845
pts:860400 pts_time:9.56 dts:856800 dts_time:9.52 duration:0 duration_time:0 stream_index:0
[mpeg @ 0xaaaae0990b50] buffer underflow st=0 bufi=209 size=9007
[mpeg @ 0xaaaae0990b50] buffer underflow st=0 bufi=2250 size=9007
[mpeg @ 0xaaaae0990b50] buffer underflow st=0 bufi=4291 size=9007
[mpeg @ 0xaaaae0990b50] buffer underflow st=0 bufi=6332 size=9007
[mpeg @ 0xaaaae0990b50] buffer underflow st=0 bufi=8373 size=9007
pts:864000 pts_time:9.6 dts:860400 dts_time:9.56 duration:0 duration_time:0 stream_index:0
[mpeg @ 0xaaaae0990b50] buffer underflow st=0 bufi=1398 size=2164
pts:867600 pts_time:9.64 dts:864000 dts_time:9.6 duration:0 duration_time:0 stream_index:0
[mpeg @ 0xaaaae0990b50] buffer underflow st=0 bufi=1266 size=2610
pts:871200 pts_time:9.68 dts:867600 dts_time:9.64 duration:0 duration_time:0 stream_index:0
[mpeg @ 0xaaaae0990b50] buffer underflow st=0 bufi=688 size=3554
[mpeg @ 0xaaaae0990b50] buffer underflow st=0 bufi=2729 size=3554
pts:874800 pts_time:9.72 dts:871200 dts_time:9.68 duration:0 duration_time:0 stream_index:0
[mpeg @ 0xaaaae0990b50] buffer underflow st=0 bufi=1207 size=1535
pts:878400 pts_time:9.76 dts:874800 dts_time:9.72 duration:0 duration_time:0 stream_index:0
[mpeg @ 0xaaaae0990b50] buffer underflow st=0 bufi=1704 size=2117
pts:882000 pts_time:9.8 dts:878400 dts_time:9.76 duration:0 duration_time:0 stream_index:0
[mpeg @ 0xaaaae0990b50] buffer underflow st=0 bufi=1619 size=2625
pts:885600 pts_time:9.84 dts:882000 dts_time:9.8 duration:0 duration_time:0 stream_index:0
[mpeg @ 0xaaaae0990b50] buffer underflow st=0 bufi=1026 size=2235
pts:889200 pts_time:9.88 dts:885600 dts_time:9.84 duration:0 duration_time:0 stream_index:0
[mpeg @ 0xaaaae0990b50] buffer underflow st=0 bufi=823 size=2018
pts:892800 pts_time:9.92 dts:889200 dts_time:9.88 duration:0 duration_time:0 stream_index:0
[mpeg @ 0xaaaae0990b50] buffer underflow st=0 bufi=837 size=1810
[mpeg @ 0xaaaae0990b50] buffer underflow st=0 bufi=1059 size=2051
pts:896400 pts_time:9.96 dts:892800 dts_time:9.92 duration:0 duration_time:0 stream_index:0
pts:900000 pts_time:10 dts:896400 dts_time:9.96 duration:0 duration_time:0 stream_index:0
